<?xml version="1.0" encoding="utf-8" ?>
<svg xmlns="http://www.w3.org/2000/svg" xmlns:xlink="http://www.w3.org/1999/xlink" width="747" height="334">
	<path fill="#023C73" d="M242.932 131.496L243.37 131.945C243.949 135.928 243.375 140.687 243.297 144.745C235.086 144.362 226.714 144.745 218.481 144.691L218.5 216.956C213.782 216.652 208.805 216.629 204.087 216.955C204.314 208.743 204.197 200.485 204.12 192.269L204.182 144.666L179.104 144.771C179.536 140.442 179.199 135.899 179.113 131.545L242.932 131.496Z"/>
	<path fill="#023C73" d="M278.739 130.739C280.304 130.613 281.89 130.632 283.46 130.603C286.45 135.734 288.296 142.326 290.562 147.853C298.14 166.338 304.812 185.325 312.886 203.593C312.938 203.571 312.99 203.548 313.043 203.526C316.919 201.931 320.955 200.899 324.988 199.785C326.595 204.033 328.355 208.565 329.325 212.995C320.316 215.37 311.324 218.72 302.417 221.51C299.877 216.598 298.066 211.039 296.019 205.885Q290.652 192.599 285.515 179.222C284.727 179.342 284.245 180.286 283.745 180.902L268.021 204.287C265.338 208.259 262.656 213.179 259.285 216.565C253.384 217.175 247.353 216.647 241.421 216.966C244.175 210.637 249.39 203.822 253.187 197.968L277.569 160.372C275.938 155.401 274.122 150.399 272.989 145.288Q266.959 145.161 260.936 145.492C261.05 140.618 260.948 135.718 260.946 130.841Q269.842 130.741 278.739 130.739Z"/>
	<path fill="#023C73" d="M98.5065 131.424C103.039 131.913 108.456 131.731 112.99 131.245C112.949 131.826 112.912 132.41 112.907 132.993L112.868 167.087C112.866 174.541 112.022 183.276 113.663 190.549C114.354 193.616 115.939 196.336 118.139 198.567Q118.486 198.922 118.85 199.259Q119.214 199.596 119.594 199.915Q119.975 200.234 120.37 200.534Q120.766 200.834 121.175 201.113Q121.585 201.393 122.008 201.653Q122.431 201.912 122.867 202.151Q123.302 202.389 123.748 202.605Q124.195 202.822 124.652 203.016Q125.108 203.211 125.574 203.382Q126.04 203.554 126.513 203.702Q126.987 203.851 127.467 203.976Q127.947 204.101 128.433 204.202Q128.919 204.303 129.409 204.38Q129.9 204.457 130.393 204.51Q130.887 204.563 131.382 204.591Q131.878 204.62 132.374 204.624C137.633 204.619 142.967 203.075 146.745 199.262C149.442 196.541 151.231 192.977 152.046 189.251C153.635 181.989 152.815 173.485 152.797 166.064L152.772 131.587C157.583 131.552 162.522 131.723 167.307 131.227L167.361 144.679C167.234 158.313 167.943 172.138 167.207 185.74C166.702 195.087 163.506 203.639 156.391 209.965C148.97 216.562 139.501 218.746 129.781 218.147C121.218 217.62 112.453 214.01 106.723 207.497C102.781 203.017 100.289 197.71 99.1014 191.874C97.5569 184.284 98.4445 169.795 98.441 161.433C98.437 151.522 97.8699 141.301 98.5065 131.424Z"/>
	<path fill="#023C73" d="M386.393 131.482C391.122 131.606 396.074 131.768 400.778 131.262C401.741 134.205 401.722 214.985 401.051 216.812C398.867 216.828 388.691 217.439 387.405 216.779C387.131 216.638 386.795 216.257 386.551 216.049C387.477 214.068 387.297 181.724 386.551 179.528C381.596 179.901 376.39 179.59 371.411 179.596C363.553 179.607 355.639 179.811 347.787 179.484C347.952 179.73 348.094 179.98 348.197 180.257C348.94 182.259 348.675 215.229 347.868 216.971C343.628 216.231 338.377 216.841 334.06 216.925C334.677 188.522 334.15 159.988 334.046 131.574C338.188 131.558 342.339 131.597 346.479 131.453L347.945 131.437L348.354 131.932C348.771 137.585 348.433 143.437 348.444 149.112C348.453 154.343 348.816 159.818 348.473 165.02C348.441 165.515 348.244 165.91 347.973 166.319C360.738 165.964 373.609 166.305 386.384 166.314C386.633 165.905 386.841 165.466 386.926 164.991C387.481 161.899 387.327 136.843 386.952 133.048C386.892 132.443 386.714 131.995 386.393 131.482Z"/>
	<path fill="#E50A2A" d="M517.288 59.2517C518.094 59.0841 518.946 58.8922 519.771 58.9877C524.02 59.4795 528.232 65.9753 532.139 68.1519C536.234 70.4338 541.291 69.9622 545.24 72.4356C548.435 74.4368 549.954 78.3315 553.226 80.1751C556.913 82.2521 561.707 81.3894 565.238 83.6397C567.82 85.2853 569.344 88.4277 571.305 90.7058C572.095 91.624 573.103 92.1944 573.887 93.1845C573.899 92.9499 573.908 92.7161 573.899 92.4812C573.823 90.4645 571.82 88.6131 570.44 87.3586C576.365 87.0546 582.159 83.9054 588.069 83.9797C588.843 83.9894 589.693 84.0698 590.398 84.4106C590.575 84.496 590.749 84.5947 590.917 84.6949C594.214 86.6521 598.073 92.2214 601.143 95.1809C603.816 97.7568 606.973 99.8248 610.049 101.888Q615.591 105.538 621.445 108.662C625.11 110.631 635.036 114.959 637.444 117.404C637.562 117.633 637.66 117.86 637.74 118.105C638.573 120.655 637.943 144.217 637.944 148.809L637.822 216.378C637.784 221.633 638.043 226.892 637.941 232.146C637.92 233.235 637.888 234.134 637.402 235.132L541.922 235.093L418.765 235.177C418.914 234.941 419.04 234.703 419.14 234.442C419.784 232.764 419.532 126.405 419.375 115.471C419.368 114.969 419.248 114.565 419.044 114.107C422.106 112.557 425.088 109.66 427.892 107.586C437.218 100.688 446.238 93.38 455.849 86.8746C459.031 84.7204 462.367 82.2955 465.871 80.7015C471.017 78.3603 474.354 85.2543 478.572 86.7481C480.69 87.498 482.246 86.6392 483.568 84.9901C486.274 81.6143 488.45 77.8748 491.329 74.6061C497.916 67.1297 508.47 63.3947 517.288 59.2517ZM437.52 131.447C437.962 132.25 438.032 132.909 438.06 133.808C438.632 152.678 438.11 171.719 438.107 190.605C438.106 194.588 438.729 212.327 437.888 215.022C437.812 215.264 437.715 215.492 437.595 215.714Q446.454 215.527 455.315 215.557C456.193 214.016 456.371 191.419 455.743 189.473C455.694 189.322 455.631 189.214 455.558 189.07C461.322 188.85 467.345 189.494 473.052 188.833C481.668 188.213 488.264 185.009 493.975 178.438C498.722 172.976 500.83 165.435 500.314 158.272C499.751 150.453 496.35 143.24 490.369 138.112C480.408 129.571 467.429 131.159 455.257 131.203C449.684 131.224 444.007 130.908 438.454 131.313C438.139 131.335 437.829 131.385 437.52 131.447ZM558.831 131.448C559.899 133.1 559.906 144.31 559.419 146.445C559.346 146.765 559.183 147.057 559.032 147.345C558.99 147.424 558.954 147.505 558.912 147.583C558.886 147.63 558.857 147.675 558.829 147.721C565.697 147.731 576.17 148.314 582.601 147.644C582.989 148.296 583.135 148.832 583.176 149.586C583.446 154.608 583.25 159.729 583.247 164.758L583.216 193.083C583.212 197.675 583.913 211.577 583.032 214.939Q582.93 215.336 582.778 215.717C588.717 215.492 594.673 215.575 600.615 215.58C601.087 214.603 601.049 193.86 600.621 192.516C600.515 192.183 600.371 191.899 600.174 191.612C600.547 191.017 600.719 190.514 600.763 189.808C601.392 179.749 600.818 169.324 600.831 159.227C600.835 156.142 601.497 151.389 600.931 148.545C600.874 148.256 600.726 147.962 600.587 147.704L624.396 147.701C624.932 146.599 624.719 132.921 624.259 131.263L578.674 131.163C573.178 131.164 563.76 130.487 558.831 131.448ZM512.993 131.448C513.487 132.392 513.653 133.186 513.701 134.248C514.344 148.508 513.705 162.976 513.719 177.262C513.725 182.54 514.344 212.123 513.463 215.033Q513.342 215.429 513.179 215.809C519.234 215.362 525.383 215.577 531.452 215.582L563.317 215.572C563.452 215.418 563.903 215.011 563.956 214.846C564.452 213.291 564.131 203.046 563.944 200.607C563.9 200.038 563.703 199.59 563.413 199.105C552.661 198.989 541.712 198.581 530.981 198.923C532.099 196.043 530.764 140.478 531.255 131.575L531.087 131.274C525.424 131.194 518.503 130.408 512.993 131.448ZM514.954 69.0966C512.962 73.2599 512.932 78.1182 514.47 82.4246C515.326 84.8223 519.414 90.4398 519.178 92.3269C514.864 89.6067 510.424 85.062 505.792 83.1836C507.264 84.5422 511.208 93.3495 512.808 95.9007C514.981 99.3664 517.551 103.195 520.337 106.174C521.992 107.944 524.046 109.456 525.596 111.299C526.011 111.792 526.562 112.435 526.602 113.094L587.958 113.091C597.086 113.093 609.986 112.263 618.716 113.578C617.687 111.968 609.781 109.376 607.585 108.862C607.52 108.847 607.454 108.834 607.389 108.819C604.666 106.999 601.476 105.669 598.601 104.07C595.071 102.106 591.533 99.4455 587.794 98.0136C590.444 99.6378 596.266 104.907 597.178 107.792C597.198 107.856 597.221 107.918 597.242 107.982C589.073 106.034 581.022 105.081 573.316 101.392C569.247 99.4437 561.437 94.0585 558.248 92.9827C559.728 94.5864 561.578 97.4883 561.467 99.7367C561.457 99.9593 561.433 100.178 561.408 100.4C559.962 98.1097 555.915 96.1944 553.757 94.2859C550.305 91.2319 541.652 79.6065 538.219 78.7898L537.535 79.065C536.085 82.4922 539.802 87.0253 538.884 90.7851C538.05 86.1248 524.106 74.0725 520.277 71.3909C518.634 70.2405 517.045 69.0673 514.954 69.0966ZM465.04 89.5157C458.284 94.3641 455.042 101.232 449.183 105.589C446.034 107.93 441.241 107.584 437.616 108.811C433.912 110.064 430.568 112.162 426.811 113.314C452.124 113.047 477.591 112.553 502.894 113.087Q513.573 113.01 524.245 113.39C521.893 111.426 517.638 110.334 514.742 109.012C511.857 107.695 508.993 106.229 506.292 104.57C501.134 101.401 497.981 96.863 493.499 93.1036C492.788 92.508 492.186 92.0146 491.203 92.084C489.993 92.1693 488.188 92.9042 487.417 93.8726C486.941 94.4701 486.82 95.254 486.96 95.9908C487.505 98.8481 491.403 101.308 490.679 104.326C490.656 104.422 490.637 104.518 490.613 104.613C490.598 104.67 490.578 104.726 490.561 104.782C486.911 102.199 482.986 100.024 479.325 97.4596C475.958 95.1008 472.805 91.8005 469.069 90.0719Q468.599 89.8579 468.103 89.714Q467.607 89.5702 467.095 89.4995Q466.584 89.4289 466.067 89.433Q465.551 89.437 465.04 89.5157Z"/>
	<path fill="#E50A2A" d="M455.983 147.856C460.436 147.256 467.806 147.273 472.197 148.06C475.405 148.636 478.321 150.143 480.191 152.882C482.147 155.747 482.691 159.734 481.978 163.111C481.477 165.482 480.269 167.68 478.2 169.005C478.083 169.387 477.952 169.625 477.677 169.915C474.066 173.733 460.61 172.433 455.345 172.517C456.562 170.354 456.153 151.494 455.983 147.856Z"/>
</svg>
